PathFileType	4	(X/Y/Z)	C:/Users/beibeiliu/ov580/test_trc/User2\sequence.36_training_dense_left.trc
DataRate	CameraRate	NumFrames	NumMarkers	Units	OrigDataRate	OrigDataStartFrame	OrigNumFrames
120	120	23	19	mm	120	1	66
Frame#	Time	ThumbCMC			ThumbMCP			ThumbIP			ThumbTip			IndexMCP			IndexPIP			IndexTip			MiddleMCP			MiddlePIP			MiddleTip			RingMCP			RingPIP			RingTip			PinkyMCP			PinkyPIP			PinkyTip			BackHand1			BackHand2			BackHand3	
		X0	Y0	Z0	X1	Y1	Z1	X2	Y2	Z2	X3	Y3	Z3	X4	Y4	Z4	X5	Y5	Z5	X6	Y6	Z6	X7	Y7	Z7	X8	Y8	Z8	X9	Y9	Z9	X10	Y10	Z10	X11	Y11	Z11	X12	Y12	Z12	X13	Y13	Z13	X14	Y14	Z14	X15	Y15	Z15	X16	Y16	Z16	X17	Y17	Z17	X18	Y18	Z18	
0	0	-103.284	-70.4447	-23.6345	-83.9745	-80.3912	-42.7426	-57.6546	-86.295	-65.0143	-39.6562	-94.196	-82.9613	-120.999	-52.8596	-104.658	-112.87	-52.0571	-131.069	-107.386	-50.2267	-163.793	-147.211	-47.0155	-111.966	-149.102	-43.7734	-143.877	-152.604	-43.3802	-175.909	-174.74	-53.4624	-107.765	-181.67	-52.3684	-129.931	-188.513	-52.5017	-158.418	-202.348	-67.7521	-87.5752	-212.997	-69.8717	-105.085	-223.924	-61.5094	-125.984	-169.692	-48.2109	-53.3109	-168.84	-43.8108	-15.4678	-134.746	-44.7773	-37.6821	
1	0.00833333	-104.364	-70.1586	-25.0594	-82.1814	-78.752	-42.938	-61.3495	-85.9735	-65.7663	-40.6775	-93.9575	-84.5935	-120.827	-49.2367	-105.472	-113.478	-48.1317	-134.784	-108.79	-49.6169	-164.622	-145.996	-45.2425	-114.007	-147.158	-43.8743	-141.159	-151.01	-45.0115	-175.93	-177.912	-53.0182	-105.045	-179.045	-53.1313	-131.014	-185.749	-53.9878	-164.552	-196.744	-68.54	-85.1659	-213.189	-69.1953	-111.803	-222.466	-65.1791	-128.94	-172.476	-50.2071	-48.264	-169.376	-45.006	-16.7173	-134.999	-44.9313	-37.4252	
2	0.0166667	-106.963	-57.0089	-22.4786	-85.2096	-63.7465	-40.7458	-58.061	-67.0791	-68.7406	-45.3882	-74.1366	-84.4195	-119.406	-31.0686	-106.387	-117.158	-31.0964	-131.56	-107.436	-33.8721	-159.13	-151.936	-33.7413	-110.029	-149.03	-33.07	-142.609	-146.486	-37.5125	-174.688	-173.296	-46.0268	-104.75	-177.249	-47.9549	-137.951	-178.98	-53.4079	-166.887	-196.162	-66.3512	-90.0286	-205.392	-71.2466	-117.26	-209.362	-72.8371	-140.585	-178.177	-46.5524	-48.8141	-175.547	-45.6938	-16.7704	-143.725	-36.0399	-32.3689	
3	0.025	-113.804	-27.4515	-26.2961	-92.2848	-31.6198	-44.7757	-68.1749	-30.3845	-70.0045	-52.6738	-33.8321	-87.2139	-136.131	-9.3923	-106.073	-124.397	-7.07456	-134.486	-117.664	-17.9073	-157.302	-159.399	-21.8907	-110.147	-153.672	-23.211	-146.965	-144.57	-32.3757	-176.318	-173.739	-41.2599	-111.391	-170.99	-45.7541	-141.503	-161.572	-50.1122	-165.545	-182.521	-67.0589	-96.0519	-182.673	-71.596	-126.538	-181.04	-76.6828	-150.79	-182.883	-46.5891	-54.984	-188.013	-49.5023	-21.4827	-158.585	-22.2502	-35.1929	
4	0.0333333	-138.607	-6.62866	-27.3068	-111.537	2.06217	-50.3924	-87.6795	10.2297	-72.6695	-71.2693	9.6327	-93.7678	-155.785	-1.70682	-109.62	-142.047	-1.93179	-135.487	-119.96	-5.99091	-156.039	-167.492	-23.1379	-122.07	-151.649	-25.0864	-152.815	-134.656	-30.4289	-174.961	-170.021	-53.2673	-116.389	-157.517	-50.298	-146.671	-138.187	-53.3638	-169.343	-165.782	-78.1607	-102.891	-155.274	-75.3436	-127.826	-143.549	-78.792	-152.075	-184.871	-56.5037	-59.5704	-188.289	-54.1153	-27.5497	-177.784	-22.441	-41.3142	
5	0.0416667	-160.899	-0.18702	-39.8757	-137.043	14.8368	-57.9057	-114.761	26.5835	-84.3117	-96.2305	31.9241	-101.611	-168.585	-13.9077	-117.097	-145.686	-13.7199	-142.909	-122.801	-7.04523	-155.205	-165.661	-43.7287	-126.04	-148.734	-38.3014	-153.76	-121.945	-37.618	-173.338	-156.475	-67.2903	-117.264	-140.325	-64.0171	-145.783	-119.91	-57.8702	-162.995	-144.016	-81.9963	-99.9571	-130.573	-78.8862	-122.581	-110.976	-75.7049	-143.285	-176.312	-66.713	-57.6346	-181.589	-67.9526	-27.6073	-188.763	-31.8634	-46.7156	
6	0.05	-175.482	-4.69764	-46.5273	-153.381	15.2427	-65.7732	-132.507	26.9784	-86.1685	-115.104	33.1862	-105.827	-167.138	-31.4327	-125.353	-151.22	-20.7099	-143.066	-123.494	-12.0112	-154.062	-159.337	-58.1624	-127.859	-144	-49.5847	-152.609	-114.734	-39.0816	-173.263	-148.696	-73.0126	-114.734	-130.41	-70.7435	-141.53	-108.347	-55.408	-163.122	-127.896	-86.8867	-96.5741	-110.606	-80.1753	-122.699	-94.4829	-70.9548	-139.238	-167.765	-74.6069	-57.2253	-174.865	-77.6965	-25.7602	-191.584	-49.7289	-49.0403	
7	0.0583333	-182.399	-10.7879	-44.0633	-161.987	11.3208	-65.2256	-142.183	27.7858	-93.6421	-124.632	35.2268	-109.84	-167.612	-38.1461	-125.34	-147.191	-22.9577	-145.142	-123.166	-12.7736	-151.929	-155.22	-62.1496	-127.151	-137.639	-53.1819	-151.618	-111.244	-33.6826	-172.016	-141.844	-76.4406	-114.698	-121.186	-72.9545	-139.454	-103.185	-56.0852	-157.313	-119.795	-86.2689	-96.9069	-105.577	-77.7754	-117.653	-87.005	-62.7015	-137.952	-158.831	-83.3301	-55.0537	-168.961	-81.9589	-26.4644	-192.077	-56.4438	-50.8728	
8	0.0666667	-183.603	-14.3691	-46.9386	-165.601	7.94467	-68.78	-147.66	22.5257	-92.7119	-129.204	30.3346	-113.988	-166.878	-41.6387	-122.567	-144.779	-24.1441	-143.725	-122.667	-2.41076	-148.753	-152.71	-63.5584	-122.843	-129.809	-52.0176	-151.657	-109.149	-32.2559	-167.554	-134.457	-77.21	-113.816	-116.957	-70.3232	-137.474	-101.108	-47.4264	-157.023	-114.849	-82.2123	-90.0357	-101.439	-72.6557	-114.766	-84.7018	-56.8653	-134.707	-154.332	-81.407	-55.2394	-163.331	-81.9764	-21.539	-186.669	-60.1239	-48.5424	
9	0.075	-185.07	-17.0631	-44.4783	-171.485	10.8674	-69.4921	-155.59	26.8954	-93.4615	-134.577	30.0169	-110.61	-165.161	-38.8404	-122.364	-145.35	-24.1344	-138.56	-122.539	0.419818	-141.183	-150.57	-59.9874	-124.343	-133.073	-46.4259	-150.178	-110.858	-26.1216	-165.325	-133.432	-72.0107	-114.519	-114.265	-66.6995	-135.264	-99.4663	-42.4129	-153.923	-115.401	-74.0193	-89.1117	-97.1369	-64.5682	-115.44	-86.1268	-47.9725	-132.875	-149.073	-81.5252	-52.8909	-159.959	-81.6599	-24.5676	-186.116	-60.8841	-47.317	
10	0.0833333	-187.532	-14.4583	-46.3618	-173.152	10.4816	-68.179	-155.498	26.5535	-94.5325	-136.375	32.6927	-114.381	-161.46	-33.764	-120.773	-144.992	-12.9891	-134.734	-120.486	11.3714	-129.634	-148.516	-56.0376	-124.988	-132.761	-41.7048	-148.122	-108.348	-21.361	-162.869	-127.18	-69.8769	-110.269	-113.457	-60.2731	-134.732	-98.9181	-34.8629	-154.096	-114.105	-68.5743	-88.8965	-97.5013	-58.5975	-114.673	-86.154	-41.0655	-131.13	-148.29	-78.0219	-52.3262	-158.873	-77.8126	-25.3952	-184.392	-60.8916	-47.8326	
11	0.0916667	-185.718	-13.364	-41.7344	-175.428	15.786	-66.2256	-157.391	31.1258	-92.6062	-136.697	33.9281	-109.361	-161.571	-28.5517	-120.238	-142.039	-6.26538	-132.129	-122.217	13.9892	-125.111	-149.423	-53.2083	-121.45	-130.04	-38.7312	-148.771	-107.851	-14.17	-164.294	-128.379	-66.0355	-107.783	-115.479	-55.3747	-133.617	-97.6871	-34.7846	-150.53	-113.19	-64.6622	-93.0587	-98.83	-54.9968	-111.507	-82.1302	-37.6281	-130.597	-148.824	-76.4195	-53.8996	-158.293	-77.4549	-22.5697	-185.266	-55.024	-49.5538	
12	0.1	-185.232	-12.2483	-45.1475	-171.324	14.057	-63.7977	-156.271	35.496	-89.8085	-137.046	40.9173	-108.831	-161.73	-25.2844	-120.66	-143.934	-3.48197	-132.356	-123.371	16.3119	-125.364	-150.636	-49.7996	-122.955	-130.025	-35.9545	-149.151	-109.173	-16.5116	-162.702	-126.963	-65.5846	-108.303	-114.628	-52.278	-135.541	-96.9223	-32.2201	-150.628	-110.875	-65.3306	-86.9614	-96.6891	-55.4276	-109.516	-82.4557	-37.2318	-131.147	-151.377	-70.4342	-55.6891	-161.349	-73.5449	-20.7288	-184.353	-53.7087	-46.3615	
13	0.108333	-186.925	-7.19153	-40.4491	-173.038	20.653	-64.2301	-155.493	38.0866	-89.6504	-134.356	43.0954	-107.214	-162.34	-27.1294	-117.152	-145.107	-5.74906	-132.357	-121.238	20.1957	-124.367	-150.417	-48.5717	-124.08	-132.975	-33.0006	-148.855	-112.476	-13.6051	-162.549	-130.099	-62.4427	-110.723	-115.804	-53.8309	-132.034	-99.4479	-32.3693	-149.966	-114.263	-63.6979	-91.7638	-94.9639	-53.3326	-113.535	-84.513	-37.2183	-130.751	-152.016	-68.847	-55.2294	-163.209	-73.256	-23.3135	-187.502	-53.1274	-44.3345	
14	0.116667	-190.008	-6.01627	-40.8278	-174.942	20.473	-60.0999	-156.308	38.8263	-86.1241	-135.146	41.2284	-104.09	-163.514	-24.27	-118.838	-145.206	-4.00625	-130.877	-123.528	20.2115	-122.128	-155.37	-46.7781	-120.898	-137.497	-31.8198	-147.698	-110.786	-9.26704	-163.499	-133.978	-61.9874	-110.118	-117.715	-53.0406	-134.185	-103.281	-32.4066	-149.854	-113.391	-66.1598	-90.8233	-99.2118	-57.4985	-110.619	-83.6185	-39.1782	-132.517	-153.281	-72.0719	-51.9777	-164.765	-70.8358	-23.8612	-187.892	-52.6704	-46.3439	
15	0.125	-190.178	-5.7346	-40.8624	-173.558	18.9564	-62.6815	-155.673	37.0896	-90.7141	-136.37	42.5981	-104.146	-168.713	-22.4773	-118.129	-149.706	0.0680806	-131.106	-121.978	21.1842	-120.901	-156.655	-49.3896	-120.34	-139.797	-30.4859	-150.643	-117.102	-11.5957	-163.542	-136.652	-63.5904	-108.94	-122.609	-53.5847	-133.824	-103.815	-33.6604	-150.92	-116.025	-67.3551	-90.1539	-103.072	-57.0962	-112.74	-89.41	-41.1133	-133.168	-156.697	-69.8986	-55.8059	-167.392	-71.9353	-23.6247	-192.284	-52.3211	-49.5697	
16	0.133333	-192.783	-5.64137	-39.9326	-175.006	20.3055	-65.6036	-157.772	36.1539	-87.8904	-137.225	40.2442	-108.599	-171.517	-24.1015	-117.246	-147.779	-1.42745	-131.02	-126.377	19.3077	-124.103	-157.94	-50.3202	-119.265	-139.966	-35.2554	-149.594	-118.241	-13.7216	-163.524	-140.729	-61.4999	-111.63	-122.194	-55.029	-136.467	-104.058	-32.6243	-154.801	-118.864	-66.4029	-92.1269	-104.776	-58.5707	-112.879	-91.455	-43.4745	-131.747	-159.431	-70.9137	-52.1886	-170.459	-72.9249	-26.2748	-192.311	-53.2469	-50.0222	
17	0.141667	-193.875	-2.35167	-41.9903	-176.071	21.5453	-59.8879	-158.489	39.5841	-85.0262	-138.686	45.8831	-105.973	-176.276	-20.8714	-117.963	-150.307	-1.38326	-133.453	-128.886	18.9652	-127.866	-160.778	-47.2819	-124.546	-145.218	-32.9242	-149.988	-117.346	-10.5475	-165.581	-141.151	-62.9357	-112.122	-126.151	-56.1094	-135.524	-110.925	-30.976	-154.709	-124.105	-65.5131	-90.7851	-104.913	-58.4547	-115.566	-93.7925	-45.4306	-131.264	-163.174	-68.8211	-56.2182	-170.494	-72.3536	-26.6934	-193.143	-51.4013	-48.241	
18	0.15	-194.19	1.07676	-43.0219	-175.632	23.2072	-58.4844	-157.237	45.0726	-86.6573	-138.014	46.4548	-102.465	-176.832	-18.7591	-117.184	-154.761	0.809307	-135.137	-127.816	18.9249	-129.172	-165.713	-44.8311	-122.506	-143.446	-31.0138	-152.78	-122.323	-13.2713	-164.735	-145.243	-60.5569	-111.129	-126.661	-53.6418	-137.828	-109.483	-30.5227	-156.975	-125.979	-65.1942	-91.1798	-109.606	-57.5089	-117.526	-97.6687	-45.7097	-133.6	-166.609	-65.4362	-55.3328	-174.709	-71.1781	-24.7265	-193.631	-46.9189	-47.2229	
19	0.158333	-190.732	1.9293	-39.5394	-173.944	28.8973	-57.4987	-155.587	46.1231	-81.4211	-135.999	52.123	-100.949	-174.172	-14.8857	-120.146	-155.641	2.59388	-132.743	-127.136	21.4879	-125.543	-166.799	-40.8369	-125.637	-150.617	-24.9581	-151.291	-124.029	-8.7943	-164.358	-145.488	-58.8638	-115.303	-132.707	-50.4547	-136.821	-112.712	-29.0968	-157.042	-128.529	-66.3415	-90.579	-111.656	-60.9961	-115.236	-95.9876	-47.3534	-133.749	-169.468	-65.9309	-58.7358	-176.522	-66.483	-23.5229	-199.789	-40.6927	-46.6706	
20	0.166667	-187.58	2.2978	-34.4207	-168.761	29.6579	-57.2132	-150.04	47.1808	-81.5569	-129.405	50.4564	-100.618	-175.644	-11.3712	-114.242	-148.723	7.66809	-128.914	-121.563	24.5429	-118.446	-166.238	-38.6092	-121.425	-151.265	-21.7904	-149.312	-122.534	-4.07782	-163.71	-148.294	-56.2314	-112.542	-130.742	-47.9979	-140.652	-115.113	-27.9258	-155.708	-130.127	-65.5233	-92.2377	-112.744	-60.6301	-115.852	-99.5261	-47.7335	-135.433	-168.779	-62.8889	-57.2751	-177.012	-65.8505	-27.4833	-196.361	-41.251	-48.6401	
21	0.175	-185.325	5.87012	-36.9932	-164.945	29.0816	-50.7285	-145.04	48.2305	-77.2243	-125.234	49.4606	-93.1577	-172.581	-4.6938	-114.586	-149.683	13.8572	-126.397	-121.8	27.1587	-116.666	-168.959	-30.1324	-125.063	-147.126	-17.8495	-150.144	-122.536	-0.960098	-162.295	-150.723	-53.3006	-112.859	-133.786	-44.5895	-141.081	-113.886	-27.7057	-156.033	-132.099	-63.7804	-97.1278	-114.593	-58.4781	-120.901	-99.4241	-49.0297	-135.903	-170.358	-61.1246	-59.4836	-177.476	-65.8336	-25.2444	-196.196	-37.2168	-46.4883	
22	0.183333	-182.557	8.58227	-33.2166	-159.853	30.37	-54.439	-139.274	48.9408	-77.1282	-118.357	50.1187	-97.3779	-175.835	0.445907	-111.834	-148.578	16.2777	-124.98	-120.549	27	-115.206	-169.919	-25.9841	-122.988	-148.5	-17.7205	-147.288	-117.642	2.05543	-162.213	-155.094	-47.8613	-113.193	-135.872	-44.6309	-139.917	-117.049	-23.7983	-156.056	-134.053	-64.4878	-97.2737	-116.031	-58.6753	-121.896	-100.882	-51.3219	-138.579	-171.882	-61.2855	-60.0805	-181.563	-65.7281	-25.9559	-198.834	-33.3295	-46.3582	
